:FULLY-SPECIFIED
:FORCE-ALL-JOINTS-BE-3DOF
:DEGREES
679
root 5.37335 16.6046 1.04601 21.4324 -15.523 -3.75973
lfemur -29.1241 29.0166 -20.1833
ltibia 84.8911 0 0
lfoot 6.27283 -4.73956 0
ltoes -0.292082 0 0
rfemur -44.5267 -16.2163 29.7178
rtibia 64.0361 0 0
rfoot -24.9708 -7.20727 0
rtoes 1.04688 0 0
lowerback -1.0047 -6.77295 -0.243177
upperback -2.07122 -9.03685 1.12638
thorax -1.33448 -4.5135 1.3006
lowerneck -10.2314 -4.10467 0.502616
upperneck 1.62574 -5.64665 2.2898
head 2.31818 -2.74159 0.354656
lclavicle 1.77446e-14 -6.57554e-15 0
lhumerus -0.870858 -70.4651 80.5708
lradius 88.1707 0 0
lwrist 28.3623 0 0
lhand -12.4507 -0.571581 0
lfingers 7.12502 0 0
lthumb 13.6234 28.9717 0
rclavicle 1.77446e-14 -6.57554e-15 0
rhumerus -52.2531 -13.459 -48.2387
rradius 66.9498 0 0
rwrist -20.3611 0 0
rhand -27.6587 -48.5215 0
rfingers 7.12502 0 0
rthumb -1.05622 -798.496 0
680
root 5.3674 16.7227 1.19489 22.6778 -14.9486 -4.99335
lfemur -29.0725 29.3657 -20.4507
ltibia 85.0136 0 0
lfoot 6.28213 -4.71356 0
ltoes -0.570441 0 0
rfemur -44.6442 -16.3393 29.9752
rtibia 63.8521 0 0
rfoot -25.3736 -7.11896 0
rtoes 0.725636 0 0
lowerback -1.06291 -6.82461 -0.226033
upperback -2.07739 -9.10379 1.15207
thorax -1.30614 -4.54718 1.31641
lowerneck -10.2619 -4.08449 0.526152
upperneck 1.63754 -5.62105 2.26359
head 2.32458 -2.72884 0.34263
lclavicle 1.78612e-14 -6.90593e-15 0
lhumerus -0.882024 -70.8995 81.1162
lradius 88.518 0 0
lwrist 28.4064 0 0
lhand -12.3689 -0.545605 0
lfingers 7.12502 0 0
lthumb 13.7023 28.9945 0
rclavicle 1.78612e-14 -6.90593e-15 0
rhumerus -52.5922 -13.5569 -48.4209
rradius 66.6657 0 0
rwrist -20.4544 0 0
rhand -27.6585 -48.6416 0
rfingers 7.12502 0 0
rthumb -1.05596 -798.616 0
681
root 5.36145 16.8409 1.34376 23.9155 -14.4027 -6.22334
lfemur -29.0449 29.6802 -20.6323
ltibia 85.149 0 0
lfoot 6.2141 -4.65135 0
ltoes -0.7351 0 0
rfemur -44.7081 -16.4541 30.2096
rtibia 63.5341 0 0
rfoot -25.6664 -6.99777 0
rtoes 0.405995 0 0
lowerback -1.11177 -6.86582 -0.224971
upperback -2.08245 -9.15733 1.1663
thorax -1.28199 -4.574 1.33018
lowerneck -10.2823 -4.07166 0.546652
upperneck 1.65873 -5.6062 2.25453
head 2.33354 -2.72085 0.336163
lclavicle 1.77663e-14 -7.16599e-15 0
lhumerus -0.898395 -71.2366 81.5963
lradius 88.8244 0 0
lwrist 28.4485 0 0
lhand -12.2936 -0.52478 0
lfingers 7.12502 0 0
lthumb 13.7749 29.0118 0
rclavicle 1.77663e-14 -7.16599e-15 0
rhumerus -52.8785 -13.6298 -48.5829
rradius 66.4476 0 0
rwrist -20.5183 0 0
rhand -27.6772 -48.7454 0
rfingers 7.12502 0 0
rthumb -1.0741 -798.72 0
682
root 5.35549 16.9591 1.49264 25.0876 -13.9694 -7.39582
lfemur -29.0803 29.9279 -20.6426
ltibia 85.3848 0 0
lfoot 6.09329 -4.56005 0
ltoes -0.733425 0 0
rfemur -44.6454 -16.5248 30.3819
rtibia 62.9945 0 0
rfoot -25.7859 -6.83172 0
rtoes 0.100899 0 0
lowerback -1.14299 -6.89199 -0.241586
upperback -2.08582 -9.19176 1.16291
thorax -1.26669 -4.59107 1.33708
lowerneck -10.2851 -4.06641 0.56287
upperneck 1.69237 -5.60253 2.2663
head 2.34494 -2.71776 0.336777
lclavicle 1.74119e-14 -7.2907e-15 0
lhumerus -0.845896 -71.39 81.8599
lradius 89.0724 0 0
lwrist 28.491 0 0
lhand -12.2463 -0.521389 0
lfingers 7.12502 0 0
lthumb 13.8205 29.0123 0
rclavicle 1.74119e-14 -7.2907e-15 0
rhumerus -53.0793 -13.6702 -48.6528
rradius 66.3646 0 0
rwrist -20.5359 0 0
rhand -27.7248 -48.817 0
rfingers 7.12502 0 0
rthumb -1.12 -798.791 0
683
root 5.34954 17.0772 1.64152 26.1362 -13.7326 -8.45688
lfemur -29.2178 30.0768 -20.3964
ltibia 85.8083 0 0
lfoot 5.94421 -4.44681 0
ltoes -0.512783 0 0
rfemur -44.3828 -16.5154 30.453
rtibia 62.1457 0 0
rfoot -25.6689 -6.60885 0
rtoes -0.176709 0 0
lowerback -1.14828 -6.89851 -0.277471
upperback -2.08695 -9.20136 1.13574
thorax -1.2649 -4.59554 1.33228
lowerneck -10.2631 -4.06897 0.573559
upperneck 1.74152 -5.61047 2.30258
head 2.35868 -2.71974 0.345997
lclavicle 1.67496e-14 -7.21502e-15 0
lhumerus -0.650452 -71.2729 81.7557
lradius 89.2448 0 0
lwrist 28.5366 0 0
lhand -12.2483 -0.547716 0
lfingers 7.12502 0 0
lthumb 13.8185 28.9848 0
rclavicle 1.67496e-14 -7.21502e-15 0
rhumerus -53.1621 -13.6703 -48.5586
rradius 66.486 0 0
rwrist -20.4905 0 0
rhand -27.8108 -48.8405 0
rfingers 7.12502 0 0
rthumb -1.20302 -798.813 0
684
root 5.34358 17.1954 1.79039 27.0033 -13.7766 -9.35266
lfemur -29.4965 30.0948 -19.8082
ltibia 86.507 0 0
lfoot 5.7914 -4.31877 0
ltoes -0.0205405 0 0
rfemur -43.847 -16.3897 30.3837
rtibia 60.9001 0 0
rfoot -25.2523 -6.3172 0
rtoes -0.413887 0 0
lowerback -1.11938 -6.8808 -0.334219
upperback -2.08525 -9.18043 1.07864
thorax -1.28129 -4.58452 1.31092
lowerneck -10.2089 -4.07955 0.577471
upperneck 1.80925 -5.63047 2.36706
head 2.37463 -2.72696 0.365346
lclavicle 1.57312e-14 -6.8739e-15 0
lhumerus -0.237989 -70.7987 81.1323
lradius 89.3242 0 0
lwrist 28.5879 0 0
lhand -12.3212 -0.616046 0
lfingers 7.12502 0 0
lthumb 13.7481 28.918 0
rclavicle 1.57312e-14 -6.8739e-15 0
rhumerus -53.0941 -13.6228 -48.2283
rradius 66.8809 0 0
rwrist -20.3652 0 0
rhand -27.9449 -48.8 0
rfingers 7.12502 0 0
rthumb -1.33252 -798.77 0
685
root 5.33763 17.3135 1.93927 27.631 -14.1851 -10.0293
lfemur -29.9555 29.9499 -18.7927
ltibia 87.5682 0 0
lfoot 5.65939 -4.18307 0
ltoes 0.795935 0 0
rfemur -42.9648 -16.1118 30.1349
rtibia 59.1701 0 0
rfoot -24.4729 -5.9448 0
rtoes -0.597693 0 0
lowerback -1.04799 -6.83426 -0.413423
upperback -2.08016 -9.12324 0.985437
thorax -1.32053 -4.55517 1.26817
lowerneck -10.1153 -4.09838 0.573359
upperneck 1.89862 -5.66295 2.46342
head 2.39268 -2.73958 0.396348
lclavicle 1.43084e-14 -6.20232e-15 0
lhumerus 0.465566 -69.8808 79.8385
lradius 89.2932 0 0
lwrist 28.6473 0 0
lhand -12.4863 -0.738662 0
lfingers 7.12502 0 0
lthumb 13.5887 28.8007 0
rclavicle 1.43084e-14 -6.20232e-15 0
rhumerus -52.8428 -13.5201 -47.5898
rradius 67.6185 0 0
rwrist -20.1432 0 0
rhand -28.1368 -48.6795 0
rfingers 7.12502 0 0
rthumb -1.51784 -798.646 0
686
root 5.33167 17.4317 2.08815 27.9613 -15.0424 -10.4328
lfemur -30.6339 29.6099 -17.2645
ltibia 89.0794 0 0
lfoot 5.5727 -4.04686 0
ltoes 1.98928 0 0
rfemur -41.6629 -15.6455 29.6675
rtibia 56.8683 0 0
rfoot -23.2673 -5.47969 0
rtoes -0.715186 0 0
lowerback -0.925831 -6.75429 -0.516676
upperback -2.0711 -9.02409 0.849984
thorax -1.38728 -4.5046 1.19918
lowerneck -9.97489 -4.1257 0.559978
upperneck 2.0127 -5.70835 2.59536
head 2.4127 -2.75776 0.440528
lclavicle 1.24331e-14 -5.13522e-15 0
lhumerus 1.53429 -68.4326 77.7228
lradius 89.1344 0 0
lwrist 28.7173 0 0
lhand -12.7652 -0.92785 0
lfingers 7.12502 0 0
lthumb 13.3194 28.6216 0
rclavicle 1.24331e-14 -5.13522e-15 0
rhumerus -52.3755 -13.3546 -46.5713
rradius 68.768 0 0
rwrist -19.8078 0 0
rhand -28.3962 -48.4631 0
rfingers 7.12502 0 0
rthumb -1.76834 -798.425 0
687
root 5.32572 17.5499 2.23702 27.9362 -16.4323 -10.5094
lfemur -31.5708 29.0427 -15.1383
ltibia 91.1279 0 0
lfoot 5.55587 -3.91728 0
ltoes 3.61212 0 0
rfemur -39.868 -14.955 28.9422
rtibia 53.907 0 0
rfoot -21.5725 -4.9099 0
rtoes -0.753422 0 0
lowerback -0.74463 -6.6363 -0.645573
upperback -2.05751 -8.87727 0.666118
thorax -1.48622 -4.42994 1.09911
lowerneck -9.78037 -4.16172 0.53608
upperneck 2.15456 -5.76711 2.76655
head 2.43458 -2.78167 0.499408
lclavicle 1.0057e-14 -3.60758e-15 0
lhumerus 3.04225 -66.3673 74.6339
lradius 88.8306 0 0
lwrist 28.8007 0 0
lhand -13.1793 -1.19589 0
lfingers 7.12502 0 0
lthumb 12.9198 28.3695 0
rclavicle 1.0057e-14 -3.60758e-15 0
rhumerus -51.6594 -13.1188 -45.1008
rradius 70.3986 0 0
rwrist -19.342 0 0
rhand -28.7328 -48.1349 0
rfingers 7.12502 0 0
rthumb -2.09339 -798.091 0
688
root 5.31977 17.668 2.3859 27.4978 -18.439 -10.2052
lfemur -32.8053 28.2164 -12.3287
ltibia 93.8012 0 0
lfoot 5.63342 -3.80146 0
ltoes 5.7171 0 0
rfemur -37.507 -14.0041 27.9199
rtibia 50.1986 0 0
rfoot -19.3251 -4.22348 0
rtoes -0.69946 0 0
lowerback -0.496103 -6.47569 -0.801705
upperback -2.03881 -8.67705 0.42768
thorax -1.62201 -4.32833 0.963133
lowerneck -9.52442 -4.20667 0.500417
upperneck 2.32725 -5.83965 2.98068
head 2.4582 -2.81147 0.574512
lclavicle 7.13189e-15 -1.55435e-15 0
lhumerus 5.06353 -63.5984 70.4206
lradius 88.3643 0 0
lwrist 28.8998 0 0
lhand -13.7501 -1.55507 0
lfingers 7.12502 0 0
lthumb 12.3689 28.0332 0
rclavicle 7.13189e-15 -1.55435e-15 0
rhumerus -50.6621 -12.8051 -43.1061
rradius 72.5793 0 0
rwrist -18.7292 0 0
rhand -29.1563 -47.679 0
rfingers 7.12502 0 0
rthumb -2.50234 -797.627 0
689
root 5.31381 17.7862 2.53478 26.5882 -21.1464 -9.46626
lfemur -34.3763 27.0988 -8.75025
ltibia 97.1865 0 0
lfoot 5.82989 -3.70656 0
ltoes 8.35684 0 0
rfemur -34.5065 -12.7569 26.5615
rtibia 45.6556 0 0
rfoot -16.4621 -3.40846 0
rtoes -0.540358 0 0
lowerback -0.171967 -6.26787 -0.986667
upperback -2.01444 -8.41773 0.128512
thorax -1.79931 -4.19689 0.786393
lowerneck -9.19975 -4.26078 0.451744
upperneck 2.53384 -5.92642 3.24144
head 2.48344 -2.84732 0.667365
lclavicle 3.60951e-15 1.0895e-15 0
lhumerus 7.6722 -60.0393 64.9316
lradius 87.7182 0 0
lwrist 29.0172 0 0
lhand -14.499 -2.01768 0
lfingers 7.12502 0 0
lthumb 11.6463 27.6013 0
rclavicle 3.60951e-15 1.0895e-15 0
rhumerus -49.3507 -12.4059 -40.5155
rradius 75.3795 0 0
rwrist -17.9524 0 0
rhand -29.6764 -47.0794 0
rfingers 7.12502 0 0
rthumb -3.00455 -797.018 0
690
root 5.30786 17.9044 2.68365 25.1494 -24.6386 -8.23872
lfemur -36.3232 25.6579 -4.31765
ltibia 101.371 0 0
lfoot 6.16981 -3.6397 0
ltoes 11.584 0 0
rfemur -30.7933 -11.1772 24.8278
rtibia 40.1904 0 0
rfoot -12.9201 -2.45288 0
rtoes -0.263173 0 0
lowerback 0.23606 -6.00824 -1.20205
upperback -1.98381 -8.0936 -0.237545
thorax -2.0228 -4.03277 0.564053
lowerneck -8.79902 -4.32426 0.388814
upperneck 2.7774 -6.02785 3.55252
head 2.51019 -2.8894 0.77949
lclavicle -5.58353e-16 4.389e-15 0
lhumerus 10.9423 -55.6032 58.0154
lradius 86.875 0 0
lwrist 29.1556 0 0
lhand -15.4475 -2.59599 0
lfingers 7.12502 0 0
lthumb 10.7311 27.0626 0
rclavicle -5.58353e-16 4.389e-15 0
rhumerus -47.6928 -11.9139 -37.2567
rradius 78.8683 0 0
rwrist -16.9949 0 0
rhand -30.3027 -46.3201 0
rfingers 7.12502 0 0
rthumb -3.60937 -796.247 0
